<mxfile host="app.diagrams.net" agent="Mozilla/5.0 (Windows NT 10.0; Win64; x64) AppleWebKit/537.36 (KHTML, like Gecko) Chrome/137.0.0.0 Safari/537.36" version="27.1.6">
  <diagram name="Página-1" id="sGYppN0e2YeZQcJCZH3L">
    <mxGraphModel grid="1" page="1" gridSize="10" guides="1" tooltips="1" connect="1" arrows="1" fold="1" pageScale="1" pageWidth="827" pageHeight="1169" math="0" shadow="0">
      <root>
        <mxCell id="0" />
        <mxCell id="1" parent="0" />
        <mxCell id="do0_FfZKc5YdR6ne_RCa-1" value="Administrador" style="html=1;whiteSpace=wrap;" vertex="1" parent="1">
          <mxGeometry x="40" y="40" width="110" height="50" as="geometry" />
        </mxCell>
        <mxCell id="do0_FfZKc5YdR6ne_RCa-2" value="Sistema&lt;span style=&quot;color: rgba(0, 0, 0, 0); font-family: monospace; font-size: 0px; text-align: start; text-wrap-mode: nowrap;&quot;&gt;%3CmxGraphModel%3E%3Croot%3E%3CmxCell%20id%3D%220%22%2F%3E%3CmxCell%20id%3D%221%22%20parent%3D%220%22%2F%3E%3CmxCell%20id%3D%222%22%20value%3D%22Usuario%22%20style%3D%22html%3D1%3BwhiteSpace%3Dwrap%3B%22%20vertex%3D%221%22%20parent%3D%221%22%3E%3CmxGeometry%20x%3D%2270%22%20y%3D%2240%22%20width%3D%22110%22%20height%3D%2250%22%20as%3D%22geometry%22%2F%3E%3C%2FmxCell%3E%3C%2Froot%3E%3C%2FmxGraphModel%3E&lt;/span&gt;" style="html=1;whiteSpace=wrap;" vertex="1" parent="1">
          <mxGeometry x="240" y="40" width="110" height="50" as="geometry" />
        </mxCell>
        <mxCell id="do0_FfZKc5YdR6ne_RCa-3" value="Base de datos" style="html=1;whiteSpace=wrap;" vertex="1" parent="1">
          <mxGeometry x="440" y="40" width="110" height="50" as="geometry" />
        </mxCell>
        <mxCell id="do0_FfZKc5YdR6ne_RCa-4" value="Administrador" style="html=1;whiteSpace=wrap;" vertex="1" parent="1">
          <mxGeometry x="40" y="600" width="110" height="50" as="geometry" />
        </mxCell>
        <mxCell id="do0_FfZKc5YdR6ne_RCa-5" value="Sistema&lt;span style=&quot;color: rgba(0, 0, 0, 0); font-family: monospace; font-size: 0px; text-align: start; text-wrap-mode: nowrap;&quot;&gt;%3CmxGraphModel%3E%3Croot%3E%3CmxCell%20id%3D%220%22%2F%3E%3CmxCell%20id%3D%221%22%20parent%3D%220%22%2F%3E%3CmxCell%20id%3D%222%22%20value%3D%22Usuario%22%20style%3D%22html%3D1%3BwhiteSpace%3Dwrap%3B%22%20vertex%3D%221%22%20parent%3D%221%22%3E%3CmxGeometry%20x%3D%2270%22%20y%3D%2240%22%20width%3D%22110%22%20height%3D%2250%22%20as%3D%22geometry%22%2F%3E%3C%2FmxCell%3E%3C%2Froot%3E%3C%2FmxGraphModel%3E&lt;/span&gt;" style="html=1;whiteSpace=wrap;" vertex="1" parent="1">
          <mxGeometry x="246.25" y="600" width="110" height="50" as="geometry" />
        </mxCell>
        <mxCell id="do0_FfZKc5YdR6ne_RCa-6" value="Base de datos" style="html=1;whiteSpace=wrap;" vertex="1" parent="1">
          <mxGeometry x="436.25" y="600" width="110" height="50" as="geometry" />
        </mxCell>
        <mxCell id="do0_FfZKc5YdR6ne_RCa-7" value="" style="endArrow=none;dashed=1;html=1;rounded=0;entryX=0.5;entryY=1;entryDx=0;entryDy=0;exitX=0.5;exitY=0;exitDx=0;exitDy=0;" edge="1" parent="1" source="do0_FfZKc5YdR6ne_RCa-9" target="do0_FfZKc5YdR6ne_RCa-2">
          <mxGeometry width="50" height="50" relative="1" as="geometry">
            <mxPoint x="270" y="320" as="sourcePoint" />
            <mxPoint x="320" y="270" as="targetPoint" />
          </mxGeometry>
        </mxCell>
        <mxCell id="do0_FfZKc5YdR6ne_RCa-8" value="" style="endArrow=none;dashed=1;html=1;rounded=0;entryX=0.5;entryY=1;entryDx=0;entryDy=0;" edge="1" parent="1" source="do0_FfZKc5YdR6ne_RCa-43" target="do0_FfZKc5YdR6ne_RCa-9">
          <mxGeometry width="50" height="50" relative="1" as="geometry">
            <mxPoint x="295.5" y="350" as="sourcePoint" />
            <mxPoint x="295" y="90" as="targetPoint" />
          </mxGeometry>
        </mxCell>
        <mxCell id="do0_FfZKc5YdR6ne_RCa-9" value="" style="html=1;points=[[0,0,0,0,5],[0,1,0,0,-5],[1,0,0,0,5],[1,1,0,0,-5]];perimeter=orthogonalPerimeter;outlineConnect=0;targetShapes=umlLifeline;portConstraint=eastwest;newEdgeStyle={&quot;curved&quot;:0,&quot;rounded&quot;:0};" vertex="1" parent="1">
          <mxGeometry x="290" y="130" width="10" height="30" as="geometry" />
        </mxCell>
        <mxCell id="do0_FfZKc5YdR6ne_RCa-10" value="" style="endArrow=classic;html=1;rounded=0;entryX=0;entryY=0;entryDx=0;entryDy=5;entryPerimeter=0;" edge="1" parent="1" target="do0_FfZKc5YdR6ne_RCa-9">
          <mxGeometry width="50" height="50" relative="1" as="geometry">
            <mxPoint x="90" y="135" as="sourcePoint" />
            <mxPoint x="200" y="110" as="targetPoint" />
          </mxGeometry>
        </mxCell>
        <mxCell id="do0_FfZKc5YdR6ne_RCa-11" value="1. Acceder al apartado &quot;Contratos&quot;" style="text;html=1;align=center;verticalAlign=middle;whiteSpace=wrap;rounded=0;" vertex="1" parent="1">
          <mxGeometry x="90" y="110" width="200" height="20" as="geometry" />
        </mxCell>
        <mxCell id="do0_FfZKc5YdR6ne_RCa-12" value="2. Consultar contratos" style="text;html=1;align=center;verticalAlign=middle;whiteSpace=wrap;rounded=0;" vertex="1" parent="1">
          <mxGeometry x="306.25" y="150" width="170" height="20" as="geometry" />
        </mxCell>
        <mxCell id="do0_FfZKc5YdR6ne_RCa-14" value="" style="endArrow=classic;html=1;rounded=0;entryX=0;entryY=0;entryDx=0;entryDy=5;entryPerimeter=0;" edge="1" parent="1" target="do0_FfZKc5YdR6ne_RCa-54">
          <mxGeometry width="50" height="50" relative="1" as="geometry">
            <mxPoint x="300" y="175" as="sourcePoint" />
            <mxPoint x="575" y="170" as="targetPoint" />
          </mxGeometry>
        </mxCell>
        <mxCell id="do0_FfZKc5YdR6ne_RCa-15" value="" style="endArrow=none;dashed=1;html=1;rounded=0;exitX=0.5;exitY=0;exitDx=0;exitDy=0;entryX=0.5;entryY=1;entryDx=0;entryDy=0;" edge="1" parent="1" source="do0_FfZKc5YdR6ne_RCa-54" target="do0_FfZKc5YdR6ne_RCa-3">
          <mxGeometry width="50" height="50" relative="1" as="geometry">
            <mxPoint x="495" y="890" as="sourcePoint" />
            <mxPoint x="495" y="480" as="targetPoint" />
          </mxGeometry>
        </mxCell>
        <mxCell id="do0_FfZKc5YdR6ne_RCa-16" value="" style="endArrow=none;dashed=1;html=1;rounded=0;exitX=0.449;exitY=-0.016;exitDx=0;exitDy=0;exitPerimeter=0;entryX=0.373;entryY=1.02;entryDx=0;entryDy=0;entryPerimeter=0;" edge="1" parent="1" source="do0_FfZKc5YdR6ne_RCa-45" target="do0_FfZKc5YdR6ne_RCa-1">
          <mxGeometry width="50" height="50" relative="1" as="geometry">
            <mxPoint x="84" y="889" as="sourcePoint" />
            <mxPoint x="82.33000000000004" y="200.51" as="targetPoint" />
            <Array as="points" />
          </mxGeometry>
        </mxCell>
        <mxCell id="do0_FfZKc5YdR6ne_RCa-18" value="9. Notificación de éxito: Contrato eliminado correctamente" style="text;html=1;align=center;verticalAlign=middle;whiteSpace=wrap;rounded=0;" vertex="1" parent="1">
          <mxGeometry x="93.75" y="500" width="190" height="20" as="geometry" />
        </mxCell>
        <mxCell id="do0_FfZKc5YdR6ne_RCa-20" value="3. Enviar contratos" style="text;html=1;align=center;verticalAlign=middle;whiteSpace=wrap;rounded=0;" vertex="1" parent="1">
          <mxGeometry x="301.5" y="200" width="170" height="20" as="geometry" />
        </mxCell>
        <mxCell id="do0_FfZKc5YdR6ne_RCa-21" value="" style="endArrow=classic;html=1;rounded=0;entryX=1;entryY=0;entryDx=0;entryDy=5;entryPerimeter=0;" edge="1" parent="1" target="do0_FfZKc5YdR6ne_RCa-43">
          <mxGeometry width="50" height="50" relative="1" as="geometry">
            <mxPoint x="490" y="225" as="sourcePoint" />
            <mxPoint x="182.5" y="180" as="targetPoint" />
          </mxGeometry>
        </mxCell>
        <mxCell id="do0_FfZKc5YdR6ne_RCa-23" value="" style="endArrow=none;dashed=1;html=1;rounded=0;exitX=0.449;exitY=-0.016;exitDx=0;exitDy=0;exitPerimeter=0;" edge="1" parent="1" source="do0_FfZKc5YdR6ne_RCa-59" target="do0_FfZKc5YdR6ne_RCa-45">
          <mxGeometry width="50" height="50" relative="1" as="geometry">
            <mxPoint x="76.5" y="1345" as="sourcePoint" />
            <mxPoint x="90" y="466" as="targetPoint" />
            <Array as="points" />
          </mxGeometry>
        </mxCell>
        <mxCell id="do0_FfZKc5YdR6ne_RCa-32" value="" style="endArrow=none;dashed=1;html=1;rounded=0;exitX=0.5;exitY=0;exitDx=0;exitDy=0;" edge="1" parent="1" source="do0_FfZKc5YdR6ne_RCa-63" target="do0_FfZKc5YdR6ne_RCa-49">
          <mxGeometry width="50" height="50" relative="1" as="geometry">
            <mxPoint x="287.5" y="436" as="sourcePoint" />
            <mxPoint x="300" y="380" as="targetPoint" />
            <Array as="points" />
          </mxGeometry>
        </mxCell>
        <mxCell id="do0_FfZKc5YdR6ne_RCa-35" value="" style="endArrow=none;dashed=1;html=1;rounded=0;exitX=0.5;exitY=0;exitDx=0;exitDy=0;" edge="1" parent="1" source="do0_FfZKc5YdR6ne_RCa-6" target="do0_FfZKc5YdR6ne_RCa-67">
          <mxGeometry width="50" height="50" relative="1" as="geometry">
            <mxPoint x="491.25" y="711" as="sourcePoint" />
            <mxPoint x="491.25" y="596" as="targetPoint" />
          </mxGeometry>
        </mxCell>
        <mxCell id="do0_FfZKc5YdR6ne_RCa-40" value="8. Confirmación" style="text;html=1;align=center;verticalAlign=middle;whiteSpace=wrap;rounded=0;" vertex="1" parent="1">
          <mxGeometry x="306.25" y="460" width="190" height="20" as="geometry" />
        </mxCell>
        <mxCell id="do0_FfZKc5YdR6ne_RCa-41" value="" style="endArrow=classic;html=1;rounded=0;entryX=1;entryY=0;entryDx=0;entryDy=5;entryPerimeter=0;" edge="1" parent="1" target="do0_FfZKc5YdR6ne_RCa-39">
          <mxGeometry width="50" height="50" relative="1" as="geometry">
            <mxPoint x="488.75" y="485" as="sourcePoint" />
            <mxPoint x="575.25" y="390" as="targetPoint" />
          </mxGeometry>
        </mxCell>
        <mxCell id="do0_FfZKc5YdR6ne_RCa-42" value="" style="endArrow=none;dashed=1;html=1;rounded=0;entryX=0.5;entryY=1;entryDx=0;entryDy=0;" edge="1" parent="1" source="do0_FfZKc5YdR6ne_RCa-49" target="do0_FfZKc5YdR6ne_RCa-43">
          <mxGeometry width="50" height="50" relative="1" as="geometry">
            <mxPoint x="295" y="270" as="sourcePoint" />
            <mxPoint x="295" y="160" as="targetPoint" />
          </mxGeometry>
        </mxCell>
        <mxCell id="do0_FfZKc5YdR6ne_RCa-43" value="" style="html=1;points=[[0,0,0,0,5],[0,1,0,0,-5],[1,0,0,0,5],[1,1,0,0,-5]];perimeter=orthogonalPerimeter;outlineConnect=0;targetShapes=umlLifeline;portConstraint=eastwest;newEdgeStyle={&quot;curved&quot;:0,&quot;rounded&quot;:0};" vertex="1" parent="1">
          <mxGeometry x="291.5" y="220" width="10" height="30" as="geometry" />
        </mxCell>
        <mxCell id="do0_FfZKc5YdR6ne_RCa-45" value="" style="html=1;points=[[0,0,0,0,5],[0,1,0,0,-5],[1,0,0,0,5],[1,1,0,0,-5]];perimeter=orthogonalPerimeter;outlineConnect=0;targetShapes=umlLifeline;portConstraint=eastwest;newEdgeStyle={&quot;curved&quot;:0,&quot;rounded&quot;:0};" vertex="1" parent="1">
          <mxGeometry x="77.5" y="266" width="10" height="30" as="geometry" />
        </mxCell>
        <mxCell id="do0_FfZKc5YdR6ne_RCa-46" value="" style="endArrow=classic;html=1;rounded=0;entryX=1;entryY=0;entryDx=0;entryDy=5;entryPerimeter=0;" edge="1" parent="1" target="do0_FfZKc5YdR6ne_RCa-45">
          <mxGeometry width="50" height="50" relative="1" as="geometry">
            <mxPoint x="290" y="272" as="sourcePoint" />
            <mxPoint x="402" y="242" as="targetPoint" />
          </mxGeometry>
        </mxCell>
        <mxCell id="do0_FfZKc5YdR6ne_RCa-47" value="4. Mostrar lista" style="text;html=1;align=center;verticalAlign=middle;whiteSpace=wrap;rounded=0;" vertex="1" parent="1">
          <mxGeometry x="105" y="246" width="170" height="20" as="geometry" />
        </mxCell>
        <mxCell id="do0_FfZKc5YdR6ne_RCa-49" value="" style="html=1;points=[[0,0,0,0,5],[0,1,0,0,-5],[1,0,0,0,5],[1,1,0,0,-5]];perimeter=orthogonalPerimeter;outlineConnect=0;targetShapes=umlLifeline;portConstraint=eastwest;newEdgeStyle={&quot;curved&quot;:0,&quot;rounded&quot;:0};" vertex="1" parent="1">
          <mxGeometry x="290" y="316" width="10" height="30" as="geometry" />
        </mxCell>
        <mxCell id="do0_FfZKc5YdR6ne_RCa-50" value="" style="endArrow=classic;html=1;rounded=0;entryX=0;entryY=0;entryDx=0;entryDy=5;entryPerimeter=0;" edge="1" parent="1" target="do0_FfZKc5YdR6ne_RCa-49">
          <mxGeometry width="50" height="50" relative="1" as="geometry">
            <mxPoint x="90" y="320" as="sourcePoint" />
            <mxPoint x="422" y="226" as="targetPoint" />
          </mxGeometry>
        </mxCell>
        <mxCell id="do0_FfZKc5YdR6ne_RCa-51" value="5. Pulsa botón &quot;Eliminar&quot;" style="text;html=1;align=center;verticalAlign=middle;whiteSpace=wrap;rounded=0;" vertex="1" parent="1">
          <mxGeometry x="105" y="296" width="170" height="20" as="geometry" />
        </mxCell>
        <mxCell id="do0_FfZKc5YdR6ne_RCa-52" value="" style="endArrow=none;dashed=1;html=1;rounded=0;exitX=0.394;exitY=0.013;exitDx=0;exitDy=0;exitPerimeter=0;" edge="1" parent="1" source="do0_FfZKc5YdR6ne_RCa-4" target="do0_FfZKc5YdR6ne_RCa-53">
          <mxGeometry width="50" height="50" relative="1" as="geometry">
            <mxPoint x="85" y="715" as="sourcePoint" />
            <mxPoint x="89" y="466" as="targetPoint" />
            <Array as="points" />
          </mxGeometry>
        </mxCell>
        <mxCell id="do0_FfZKc5YdR6ne_RCa-53" value="&lt;span style=&quot;color: rgb(237, 237, 237); font-family: monospace; font-size: 0px; text-align: start;&quot;&gt;%3CmxGraphModel%3E%3Croot%3E%3CmxCell%20id%3D%220%22%2F%3E%3CmxCell%20id%3D%221%22%20parent%3D%220%22%2F%3E%3CmxCell%20id%3D%222%22%20value%3D%22%22%20style%3D%22html%3D1%3Bpoints%3D%5B%5B0%2C0%2C0%2C0%2C5%5D%2C%5B0%2C1%2C0%2C0%2C-5%5D%2C%5B1%2C0%2C0%2C0%2C5%5D%2C%5B1%2C1%2C0%2C0%2C-5%5D%5D%3Bperimeter%3DorthogonalPerimeter%3BoutlineConnect%3D0%3BtargetShapes%3DumlLifeline%3BportConstraint%3Deastwest%3BnewEdgeStyle%3D%7B%26quot%3Bcurved%26quot%3B%3A0%2C%26quot%3Brounded%26quot%3B%3A0%7D%3B%22%20vertex%3D%221%22%20parent%3D%221%22%3E%3CmxGeometry%20x%3D%2285%22%20y%3D%22280%22%20width%3D%2210%22%20height%3D%2230%22%20as%3D%22geometry%22%2F%3E%3C%2FmxCell%3E%3C%2Froot%3E%3C%2FmxGraphModel%3E&lt;/span&gt;&lt;span style=&quot;color: rgb(237, 237, 237); font-family: monospace; font-size: 0px; text-align: start;&quot;&gt;%3CmxGraphModel%3E%3Croot%3E%3CmxCell%20id%3D%220%22%2F%3E%3CmxCell%20id%3D%221%22%20parent%3D%220%22%2F%3E%3CmxCell%20id%3D%222%22%20value%3D%22%22%20style%3D%22html%3D1%3Bpoints%3D%5B%5B0%2C0%2C0%2C0%2C5%5D%2C%5B0%2C1%2C0%2C0%2C-5%5D%2C%5B1%2C0%2C0%2C0%2C5%5D%2C%5B1%2C1%2C0%2C0%2C-5%5D%5D%3Bperimeter%3DorthogonalPerimeter%3BoutlineConnect%3D0%3BtargetShapes%3DumlLifeline%3BportConstraint%3Deastwest%3BnewEdgeStyle%3D%7B%26quot%3Bcurved%26quot%3B%3A0%2C%26quot%3Brounded%26quot%3B%3A0%7D%3B%22%20vertex%3D%221%22%20parent%3D%221%22%3E%3CmxGeometry%20x%3D%2285%22%20y%3D%22280%22%20width%3D%2210%22%20height%3D%2230%22%20as%3D%22geometry%22%2F%3E%3C%2FmxCell%3E%3C%2Froot%3E%3C%2FmxGraphModel%3E&lt;/span&gt;" style="html=1;points=[[0,0,0,0,5],[0,1,0,0,-5],[1,0,0,0,5],[1,1,0,0,-5]];perimeter=orthogonalPerimeter;outlineConnect=0;targetShapes=umlLifeline;portConstraint=eastwest;newEdgeStyle={&quot;curved&quot;:0,&quot;rounded&quot;:0};" vertex="1" parent="1">
          <mxGeometry x="77.5" y="530" width="10" height="30" as="geometry" />
        </mxCell>
        <mxCell id="do0_FfZKc5YdR6ne_RCa-55" value="" style="endArrow=none;dashed=1;html=1;rounded=0;exitX=0.5;exitY=0;exitDx=0;exitDy=0;entryX=0.5;entryY=1;entryDx=0;entryDy=0;" edge="1" parent="1" source="do0_FfZKc5YdR6ne_RCa-67" target="do0_FfZKc5YdR6ne_RCa-54">
          <mxGeometry width="50" height="50" relative="1" as="geometry">
            <mxPoint x="491" y="566" as="sourcePoint" />
            <mxPoint x="495" y="90" as="targetPoint" />
          </mxGeometry>
        </mxCell>
        <mxCell id="do0_FfZKc5YdR6ne_RCa-54" value="" style="html=1;points=[[0,0,0,0,5],[0,1,0,0,-5],[1,0,0,0,5],[1,1,0,0,-5]];perimeter=orthogonalPerimeter;outlineConnect=0;targetShapes=umlLifeline;portConstraint=eastwest;newEdgeStyle={&quot;curved&quot;:0,&quot;rounded&quot;:0};" vertex="1" parent="1">
          <mxGeometry x="487.5" y="170" width="10" height="30" as="geometry" />
        </mxCell>
        <mxCell id="do0_FfZKc5YdR6ne_RCa-60" value="" style="endArrow=none;dashed=1;html=1;rounded=0;exitX=0.449;exitY=-0.016;exitDx=0;exitDy=0;exitPerimeter=0;" edge="1" parent="1" source="do0_FfZKc5YdR6ne_RCa-53" target="do0_FfZKc5YdR6ne_RCa-59">
          <mxGeometry width="50" height="50" relative="1" as="geometry">
            <mxPoint x="84" y="656" as="sourcePoint" />
            <mxPoint x="84" y="296" as="targetPoint" />
            <Array as="points" />
          </mxGeometry>
        </mxCell>
        <mxCell id="do0_FfZKc5YdR6ne_RCa-59" value="" style="html=1;points=[[0,0,0,0,5],[0,1,0,0,-5],[1,0,0,0,5],[1,1,0,0,-5]];perimeter=orthogonalPerimeter;outlineConnect=0;targetShapes=umlLifeline;portConstraint=eastwest;newEdgeStyle={&quot;curved&quot;:0,&quot;rounded&quot;:0};" vertex="1" parent="1">
          <mxGeometry x="77.5" y="350" width="10" height="30" as="geometry" />
        </mxCell>
        <mxCell id="do0_FfZKc5YdR6ne_RCa-61" value="" style="endArrow=classic;html=1;rounded=0;entryX=1;entryY=0;entryDx=0;entryDy=5;entryPerimeter=0;" edge="1" parent="1" target="do0_FfZKc5YdR6ne_RCa-59">
          <mxGeometry width="50" height="50" relative="1" as="geometry">
            <mxPoint x="290" y="355" as="sourcePoint" />
            <mxPoint x="440" y="321" as="targetPoint" />
          </mxGeometry>
        </mxCell>
        <mxCell id="do0_FfZKc5YdR6ne_RCa-62" value="6. Mostrar confirmación" style="text;html=1;align=center;verticalAlign=middle;whiteSpace=wrap;rounded=0;" vertex="1" parent="1">
          <mxGeometry x="106.25" y="330" width="170" height="20" as="geometry" />
        </mxCell>
        <mxCell id="do0_FfZKc5YdR6ne_RCa-64" value="" style="endArrow=none;dashed=1;html=1;rounded=0;exitX=0.443;exitY=-0.04;exitDx=0;exitDy=0;exitPerimeter=0;" edge="1" parent="1" source="do0_FfZKc5YdR6ne_RCa-39" target="do0_FfZKc5YdR6ne_RCa-63">
          <mxGeometry width="50" height="50" relative="1" as="geometry">
            <mxPoint x="295" y="606" as="sourcePoint" />
            <mxPoint x="295" y="346" as="targetPoint" />
            <Array as="points" />
          </mxGeometry>
        </mxCell>
        <mxCell id="do0_FfZKc5YdR6ne_RCa-63" value="" style="html=1;points=[[0,0,0,0,5],[0,1,0,0,-5],[1,0,0,0,5],[1,1,0,0,-5]];perimeter=orthogonalPerimeter;outlineConnect=0;targetShapes=umlLifeline;portConstraint=eastwest;newEdgeStyle={&quot;curved&quot;:0,&quot;rounded&quot;:0};" vertex="1" parent="1">
          <mxGeometry x="290" y="390" width="10" height="30" as="geometry" />
        </mxCell>
        <mxCell id="do0_FfZKc5YdR6ne_RCa-65" value="" style="endArrow=classic;html=1;rounded=0;entryX=0;entryY=0;entryDx=0;entryDy=5;entryPerimeter=0;" edge="1" parent="1" target="do0_FfZKc5YdR6ne_RCa-63">
          <mxGeometry width="50" height="50" relative="1" as="geometry">
            <mxPoint x="80" y="395" as="sourcePoint" />
            <mxPoint x="210" y="360" as="targetPoint" />
          </mxGeometry>
        </mxCell>
        <mxCell id="do0_FfZKc5YdR6ne_RCa-66" value="7. Pulsa el botón &quot;confirmar&quot;" style="text;html=1;align=center;verticalAlign=middle;whiteSpace=wrap;rounded=0;" vertex="1" parent="1">
          <mxGeometry x="106.25" y="370" width="170" height="20" as="geometry" />
        </mxCell>
        <mxCell id="do0_FfZKc5YdR6ne_RCa-67" value="" style="html=1;points=[[0,0,0,0,5],[0,1,0,0,-5],[1,0,0,0,5],[1,1,0,0,-5]];perimeter=orthogonalPerimeter;outlineConnect=0;targetShapes=umlLifeline;portConstraint=eastwest;newEdgeStyle={&quot;curved&quot;:0,&quot;rounded&quot;:0};" vertex="1" parent="1">
          <mxGeometry x="486.25" y="420" width="10" height="30" as="geometry" />
        </mxCell>
        <mxCell id="do0_FfZKc5YdR6ne_RCa-69" value="" style="endArrow=classic;html=1;rounded=0;entryX=0;entryY=0;entryDx=0;entryDy=5;entryPerimeter=0;" edge="1" parent="1" target="do0_FfZKc5YdR6ne_RCa-67">
          <mxGeometry width="50" height="50" relative="1" as="geometry">
            <mxPoint x="300" y="425" as="sourcePoint" />
            <mxPoint x="450" y="390" as="targetPoint" />
          </mxGeometry>
        </mxCell>
        <mxCell id="do0_FfZKc5YdR6ne_RCa-70" value="8. Eliminar contrato" style="text;html=1;align=center;verticalAlign=middle;whiteSpace=wrap;rounded=0;" vertex="1" parent="1">
          <mxGeometry x="307.5" y="400" width="170" height="20" as="geometry" />
        </mxCell>
        <mxCell id="do0_FfZKc5YdR6ne_RCa-71" value="" style="endArrow=none;dashed=1;html=1;rounded=0;exitX=0.443;exitY=-0.04;exitDx=0;exitDy=0;exitPerimeter=0;" edge="1" parent="1" source="do0_FfZKc5YdR6ne_RCa-5" target="do0_FfZKc5YdR6ne_RCa-39">
          <mxGeometry width="50" height="50" relative="1" as="geometry">
            <mxPoint x="295" y="714" as="sourcePoint" />
            <mxPoint x="295" y="420" as="targetPoint" />
            <Array as="points">
              <mxPoint x="295" y="580" />
              <mxPoint x="295" y="540" />
              <mxPoint x="295" y="510" />
              <mxPoint x="295" y="470" />
            </Array>
          </mxGeometry>
        </mxCell>
        <mxCell id="do0_FfZKc5YdR6ne_RCa-39" value="&lt;span style=&quot;color: rgb(237, 237, 237); font-family: monospace; font-size: 0px; text-align: start;&quot;&gt;%3CmxGraphModel%3E%3Croot%3E%3CmxCell%20id%3D%220%22%2F%3E%3CmxCell%20id%3D%221%22%20parent%3D%220%22%2F%3E%3CmxCell%20id%3D%222%22%20value%3D%22%22%20style%3D%22html%3D1%3Bpoints%3D%5B%5B0%2C0%2C0%2C0%2C5%5D%2C%5B0%2C1%2C0%2C0%2C-5%5D%2C%5B1%2C0%2C0%2C0%2C5%5D%2C%5B1%2C1%2C0%2C0%2C-5%5D%5D%3Bperimeter%3DorthogonalPerimeter%3BoutlineConnect%3D0%3BtargetShapes%3DumlLifeline%3BportConstraint%3Deastwest%3BnewEdgeStyle%3D%7B%26quot%3Bcurved%26quot%3B%3A0%2C%26quot%3Brounded%26quot%3B%3A0%7D%3B%22%20vertex%3D%221%22%20parent%3D%221%22%3E%3CmxGeometry%20x%3D%2285%22%20y%3D%22280%22%20width%3D%2210%22%20height%3D%2230%22%20as%3D%22geometry%22%2F%3E%3C%2FmxCell%3E%3C%2Froot%3E%3C%2FmxGraphModel%3E&lt;/span&gt;&lt;span style=&quot;color: rgb(237, 237, 237); font-family: monospace; font-size: 0px; text-align: start;&quot;&gt;%3CmxGraphModel%3E%3Croot%3E%3CmxCell%20id%3D%220%22%2F%3E%3CmxCell%20id%3D%221%22%20parent%3D%220%22%2F%3E%3CmxCell%20id%3D%222%22%20value%3D%22%22%20style%3D%22html%3D1%3Bpoints%3D%5B%5B0%2C0%2C0%2C0%2C5%5D%2C%5B0%2C1%2C0%2C0%2C-5%5D%2C%5B1%2C0%2C0%2C0%2C5%5D%2C%5B1%2C1%2C0%2C0%2C-5%5D%5D%3Bperimeter%3DorthogonalPerimeter%3BoutlineConnect%3D0%3BtargetShapes%3DumlLifeline%3BportConstraint%3Deastwest%3BnewEdgeStyle%3D%7B%26quot%3Bcurved%26quot%3B%3A0%2C%26quot%3Brounded%26quot%3B%3A0%7D%3B%22%20vertex%3D%221%22%20parent%3D%221%22%3E%3CmxGeometry%20x%3D%2285%22%20y%3D%22280%22%20width%3D%2210%22%20height%3D%2230%22%20as%3D%22geometry%22%2F%3E%3C%2FmxCell%3E%3C%2Froot%3E%3C%2FmxGraphModel%3E&lt;/span&gt;" style="html=1;points=[[0,0,0,0,5],[0,1,0,0,-5],[1,0,0,0,5],[1,1,0,0,-5]];perimeter=orthogonalPerimeter;outlineConnect=0;targetShapes=umlLifeline;portConstraint=eastwest;newEdgeStyle={&quot;curved&quot;:0,&quot;rounded&quot;:0};" vertex="1" parent="1">
          <mxGeometry x="291.5" y="480" width="10" height="30" as="geometry" />
        </mxCell>
        <mxCell id="do0_FfZKc5YdR6ne_RCa-73" value="" style="endArrow=open;endSize=12;dashed=1;html=1;rounded=0;fontSize=12;curved=1;entryX=1;entryY=0;entryDx=0;entryDy=5;entryPerimeter=0;" edge="1" parent="1" target="do0_FfZKc5YdR6ne_RCa-53">
          <mxGeometry width="160" relative="1" as="geometry">
            <mxPoint x="290" y="535" as="sourcePoint" />
            <mxPoint x="360" y="330" as="targetPoint" />
          </mxGeometry>
        </mxCell>
      </root>
    </mxGraphModel>
  </diagram>
</mxfile>
